<svg width="70" height="28" viewBox="0 0 71 29" fill="none" xmlns="http://www.w3.org/2000/svg">
<path d="M16.9014 26.1455C14.1898 26.3506 11.4896 26.5443 8.80078 26.7266C6.13477 26.9089 3.44596 27.0798 0.734375 27.2393C0.620443 22.887 0.529297 18.569 0.460938 14.2852C0.392578 9.97852 0.267253 5.6377 0.0849609 1.2627C1.61165 1.23991 3.11556 1.19434 4.59668 1.12598C6.0778 1.05762 7.57031 0.966471 9.07422 0.852539C8.82357 2.53874 8.58431 4.23633 8.35645 5.94531C8.15137 7.63151 7.99186 9.3291 7.87793 11.0381C7.78678 12.4736 7.70703 13.9092 7.63867 15.3447C7.5931 16.7575 7.54753 18.1816 7.50195 19.6172C9.00586 19.6628 10.487 19.6855 11.9453 19.6855C13.4264 19.6855 14.9076 19.7083 16.3887 19.7539L16.9014 26.1455ZM33.3076 1.91211C33.1937 3.30208 33.1481 4.69206 33.1709 6.08203C33.1937 7.44922 33.1823 8.81641 33.1367 10.1836L29.3428 10.0469C29.32 10.8444 29.2972 11.6305 29.2744 12.4053C29.2744 13.18 29.2744 13.9661 29.2744 14.7637C29.2744 15.7207 29.2744 16.6663 29.2744 17.6006C29.2972 18.512 29.32 19.4463 29.3428 20.4033L32.8291 20.4717C32.7835 21.1325 32.7607 21.8047 32.7607 22.4883C32.7607 23.1719 32.7607 23.8555 32.7607 24.5391C32.7607 25.1087 32.7721 25.6784 32.7949 26.248C32.8405 26.8177 32.9202 27.376 33.0342 27.9229L20.7637 28.1279C20.7637 27.0114 20.7523 25.9176 20.7295 24.8467C20.7067 23.7529 20.6611 22.6478 20.5928 21.5312L22.8145 21.4971C22.7005 19.3551 22.5638 17.236 22.4043 15.1396C22.2676 13.0433 22.1195 10.9355 21.96 8.81641L18.7129 8.40625C18.6673 7.44922 18.6217 6.50358 18.5762 5.56934C18.5534 4.6123 18.5192 3.65527 18.4736 2.69824C20.9574 2.6071 23.4183 2.50456 25.8564 2.39062C28.3174 2.25391 30.8011 2.0944 33.3076 1.91211ZM54.2939 26.1455C51.5824 26.3506 48.8822 26.5443 46.1934 26.7266C43.5273 26.9089 40.8385 27.0798 38.127 27.2393C38.013 22.887 37.9219 18.569 37.8535 14.2852C37.7852 9.97852 37.6598 5.6377 37.4775 1.2627C39.0042 1.23991 40.5081 1.19434 41.9893 1.12598C43.4704 1.05762 44.9629 0.966471 46.4668 0.852539C46.2161 2.53874 45.9769 4.23633 45.749 5.94531C45.5439 7.63151 45.3844 9.3291 45.2705 11.0381C45.1794 12.4736 45.0996 13.9092 45.0312 15.3447C44.9857 16.7575 44.9401 18.1816 44.8945 19.6172C46.3984 19.6628 47.8796 19.6855 49.3379 19.6855C50.819 19.6855 52.3001 19.7083 53.7812 19.7539L54.2939 26.1455ZM70.7002 1.91211C70.5863 3.30208 70.5407 4.69206 70.5635 6.08203C70.5863 7.44922 70.5749 8.81641 70.5293 10.1836L66.7354 10.0469C66.7126 10.8444 66.6898 11.6305 66.667 12.4053C66.667 13.18 66.667 13.9661 66.667 14.7637C66.667 15.7207 66.667 16.6663 66.667 17.6006C66.6898 18.512 66.7126 19.4463 66.7354 20.4033L70.2217 20.4717C70.1761 21.1325 70.1533 21.8047 70.1533 22.4883C70.1533 23.1719 70.1533 23.8555 70.1533 24.5391C70.1533 25.1087 70.1647 25.6784 70.1875 26.248C70.2331 26.8177 70.3128 27.376 70.4268 27.9229L58.1562 28.1279C58.1562 27.0114 58.1449 25.9176 58.1221 24.8467C58.0993 23.7529 58.0537 22.6478 57.9854 21.5312L60.207 21.4971C60.0931 19.3551 59.9564 17.236 59.7969 15.1396C59.6602 13.0433 59.512 10.9355 59.3525 8.81641L56.1055 8.40625C56.0599 7.44922 56.0143 6.50358 55.9688 5.56934C55.946 4.6123 55.9118 3.65527 55.8662 2.69824C58.3499 2.6071 60.8109 2.50456 63.249 2.39062C65.71 2.25391 68.1937 2.0944 70.7002 1.91211Z" fill="black"/>
</svg>
